<svg width="410" height="410" xmlns="http://www.w3.org/2000/svg" xmlns:xlink="http://www.w3.org/1999/xlink" xml:space="preserve" overflow="hidden"><g transform="translate(-227 -796)"><path d="M98.2291 350.208 98.2291 59.7916 205 59.7916 205 149.479 311.771 149.479 311.771 350.208 98.2291 350.208ZM230.625 70.4687 284.01 123.854 230.625 123.854 230.625 70.4687ZM230.625 34.1666 72.6041 34.1666 72.6041 375.833 337.396 375.833 337.396 128.125 230.625 34.1666Z" fill="#9BBB59" transform="matrix(1 0 0 1 227 796)"/><path d="M123.854 192.187 286.146 192.187 286.146 209.271 123.854 209.271Z" fill="#9BBB59" transform="matrix(1 0 0 1 227 796)"/><path d="M123.854 158.021 179.375 158.021 179.375 175.104 123.854 175.104Z" fill="#9BBB59" transform="matrix(1 0 0 1 227 796)"/><path d="M123.854 226.354 286.146 226.354 286.146 243.437 123.854 243.437Z" fill="#9BBB59" transform="matrix(1 0 0 1 227 796)"/><path d="M123.854 260.521 286.146 260.521 286.146 277.604 123.854 277.604Z" fill="#9BBB59" transform="matrix(1 0 0 1 227 796)"/><path d="M123.854 294.687 286.146 294.687 286.146 311.771 123.854 311.771Z" fill="#9BBB59" transform="matrix(1 0 0 1 227 796)"/></g></svg>