<svg width="410" height="411" xmlns="http://www.w3.org/2000/svg" xmlns:xlink="http://www.w3.org/1999/xlink" xml:space="preserve" overflow="hidden"><g transform="translate(-1445 -1032)"><path d="M253.26 159.302C235.323 159.302 221.229 144.781 221.229 127.271 221.229 109.76 235.75 95.2395 253.26 95.2395 271.198 95.2395 285.292 109.76 285.292 127.271 285.292 144.781 270.771 159.302 253.26 159.302ZM325.437 107.198C323.729 101.219 321.594 95.6666 318.604 90.5416L325.437 70.4687 310.062 55.0937 289.989 61.927C284.864 58.9375 279.312 56.802 273.333 55.0937L263.937 36.3021 242.583 36.3021 233.187 55.0937C227.208 56.802 221.656 58.9375 216.531 61.927L196.458 55.0937 181.083 70.4687 187.917 90.5416C184.927 95.6666 182.792 101.219 181.083 107.198L162.292 116.594 162.292 137.948 181.083 147.344C182.792 153.323 184.927 158.875 187.917 164L181.083 184.073 196.031 199.021 216.104 192.187C221.229 195.177 226.781 197.312 232.76 199.021L242.156 217.812 263.51 217.812 272.906 199.021C278.885 197.312 284.437 195.177 289.562 192.187L309.635 199.021 325.01 184.073 318.177 164C321.166 158.875 323.729 152.896 325.437 147.344L344.229 137.948 344.229 116.594 325.437 107.198Z" fill="#8064A2" transform="matrix(1 0 0 1.00244 1445 1032)"/><path d="M156.739 314.76C138.802 314.76 124.708 300.239 124.708 282.729 124.708 264.792 139.229 250.698 156.739 250.698 174.677 250.698 188.771 265.219 188.771 282.729 188.771 300.239 174.677 314.76 156.739 314.76L156.739 314.76ZM222.083 246 228.917 225.927 213.542 210.552 193.469 217.385C188.344 214.396 182.364 212.26 176.812 210.552L167.417 191.76 146.062 191.76 136.667 210.552C130.687 212.26 125.135 214.396 120.01 217.385L99.9374 210.552 84.9895 225.5 91.3958 245.573C88.4062 250.698 86.2708 256.677 84.5624 262.229L65.7708 271.625 65.7708 292.979 84.5624 302.375C86.2708 308.354 88.4062 313.906 91.3958 319.031L84.9895 339.104 99.9374 354.052 120.01 347.646C125.135 350.635 130.687 352.771 136.667 354.479L146.062 373.271 167.417 373.271 176.812 354.479C182.792 352.771 188.344 350.635 193.469 347.646L213.542 354.479 228.489 339.104 222.083 319.458C225.073 314.333 227.208 308.781 228.917 302.802L247.708 293.406 247.708 272.052 228.917 262.656C227.208 256.677 225.073 251.125 222.083 246Z" fill="#8064A2" transform="matrix(1 0 0 1.00244 1445 1032)"/></g></svg>